<?xml version="1.0" standalone="no"?><!DOCTYPE svg PUBLIC "-//W3C//DTD SVG 1.1//EN" "http://www.w3.org/Graphics/SVG/1.1/DTD/svg11.dtd"><svg t="1537952155286" class="icon" style="" viewBox="0 0 1024 1024" version="1.1" xmlns="http://www.w3.org/2000/svg" p-id="2173" xmlns:xlink="http://www.w3.org/1999/xlink" width="200" height="200"><defs><style type="text/css"></style></defs><path d="M793.421484 65.290005H230.577492c-53.879118 0-97.556896 43.677778-97.556896 97.556897v698.306196c0 53.879118 43.677778 97.556896 97.556896 97.556897h562.843992c53.879118 0 97.556896-43.677778 97.556897-97.556897V162.846902c0-53.879118-43.677778-97.556896-97.556897-97.556897zM681.081906 815.498292H342.905814c-26.929326 0-48.777937-21.848611-48.777937-48.777936s21.848611-48.777937 48.777937-48.777937h338.177116c26.929326 0 48.777937 21.848611 48.777936 48.777937s-21.848611 48.777937-48.77896 48.777936z m0-254.720355H342.905814c-26.929326 0-48.777937-21.848611-48.777937-48.777937 0-26.929326 21.848611-48.777937 48.777937-48.777937h338.177116c26.929326 0 48.777937 21.848611 48.777936 48.777937 0 26.929326-21.848611 48.777937-48.77896 48.777937z m0-254.720356H342.905814c-26.929326 0-48.777937-21.848611-48.777937-48.777937s21.848611-48.777937 48.777937-48.777936h338.177116c26.929326 0 48.777937 21.848611 48.777936 48.777936s-21.848611 48.777937-48.77896 48.777937z" p-id="2174"></path></svg>