<?xml version="1.0" standalone="no"?><!DOCTYPE svg PUBLIC "-//W3C//DTD SVG 1.1//EN" "http://www.w3.org/Graphics/SVG/1.1/DTD/svg11.dtd"><svg t="1540867562999" class="icon" style="" viewBox="0 0 1024 1024" version="1.1" xmlns="http://www.w3.org/2000/svg" p-id="1337" xmlns:xlink="http://www.w3.org/1999/xlink" width="128" height="128"><defs><style type="text/css"></style></defs><path d="M344.83904 596.032c8.576-3.2 19.136-6.016 31.552-13.696 18.048-11.072 32-33.856-1.664-61.76-111.36-156.032-70.784-259.648-53.888-298.624a135.232 135.232 0 0 0-48.512-8.576h-5.76c-106.56 0-134.848 94.272-137.088 147.008-1.408 124.608 76.864 174.208 76.864 174.208s4.928 6.528 4.928 25.536c0 4.352-2.944 17.344-8 21.184-43.712 34.432-189.696 70.336-199.936 144.512-5.376 21.44-2.112 43.648-1.024 64.256 23.936 17.792 100.48 32.96 100.48 32.96s6.336-18.816 12.8-49.792c9.408-45.696 73.28-119.936 229.248-177.216z m676.48 129.216c-10.432-74.048-160.384-109.888-205.184-144.32-5.184-3.904-8.064-16.896-8.064-21.184 0-19.008 4.928-25.536 4.928-25.536s80.32-49.472 78.912-173.952c-2.24-52.8-36.096-146.88-140.48-146.88h-5.952c-22.528 0-41.408 4.096-57.6 10.944 22.4 72.704 49.152 206.08-63.808 295.424C579.71904 583.936 727.36704 621.632 704.39104 611.584c133.568 58.368 169.408 103.04 179.264 149.312 8.192 38.656 12.8 62.208 12.8 62.208s100.032-14.784 125.952-33.728c1.088-20.48 4.416-42.688-1.088-64.128zM585.92704 582.976c-6.336-4.864-9.984-20.928-9.984-26.304 0-23.616 6.08-31.68 6.08-31.68-0.128 0.128 98.752-51.84 96.768-216.192-2.688-65.664-44.224-182.592-172.352-182.592h-7.296c-134.016 0-169.664 116.928-172.352 182.592-1.728 154.624 96.768 216.192 96.768 216.192s11.904 13.248 11.904 36.8c0 5.376-9.472 16.32-15.808 21.184-54.976 42.752-253.056 85.824-265.92 177.92-9.984 39.104-68.736 100.992 126.72 125.952 53.824 6.848 126.976 10.944 225.856 10.944 453.44 0 359.616-85.376 346.944-135.424-12.672-92.032-212.352-136.64-267.328-179.392z" fill="" p-id="1338"></path></svg>