<?xml version="1.0" standalone="no"?><!DOCTYPE svg PUBLIC "-//W3C//DTD SVG 1.1//EN" "http://www.w3.org/Graphics/SVG/1.1/DTD/svg11.dtd"><svg t="1538018070453" class="icon" style="" viewBox="0 0 1024 1024" version="1.1" xmlns="http://www.w3.org/2000/svg" p-id="1350" xmlns:xlink="http://www.w3.org/1999/xlink" width="200" height="200"><defs><style type="text/css"></style></defs><path d="M753.519 138.317C547.163 4.922 271.722 64.088 138.325 270.447 4.911 476.856 64.093 752.298 270.479 885.684c206.372 133.396 481.813 74.229 615.206-132.161 133.398-206.377 74.221-481.823-132.166-615.206z m38.005 482.113c0 49.48-39.46 91.018-86.196 91.018H474.004L308.752 871.313l-0.695-159.848c-44.378-3.015-80.972-43.443-80.972-91.035V369.615c0-46.26 37.195-82.302 86.354-82.302h391.888c49.154 0 86.196 36.043 86.196 82.302V620.43h0.001z m-86.197-283.684H313.439c-18.88 0-38.519 9.431-38.519 32.869V620.43c0 23.162 18.005 43.183 38.519 43.183h41.529l0.379 96.323 99.647-96.323h250.334c20.513 0 39.958-20.021 39.958-43.183V369.615c-0.001-23.438-21.085-32.869-39.959-32.869z m-54.864 248.738H368.299c-12.982 0-23.516-10.138-23.516-23.119 0-12.982 10.534-23.119 23.516-23.119h282.164c12.982 0 23.515 10.138 23.515 23.119 0 12.98-10.533 23.119-23.515 23.119z m0-108.425H368.299c-12.982 0-23.516-10.138-23.516-23.119 0-12.982 10.534-23.119 23.516-23.119h282.164c12.982 0 23.515 10.138 23.515 23.119s-10.533 23.119-23.515 23.119z" p-id="1351"></path></svg>