<?xml version="1.0" standalone="no"?><!DOCTYPE svg PUBLIC "-//W3C//DTD SVG 1.1//EN" "http://www.w3.org/Graphics/SVG/1.1/DTD/svg11.dtd"><svg t="1537952546675" class="icon" style="" viewBox="0 0 1024 1024" version="1.1" xmlns="http://www.w3.org/2000/svg" p-id="7328" xmlns:xlink="http://www.w3.org/1999/xlink" width="200" height="200"><defs><style type="text/css"></style></defs><path d="M440.32 716.8H372.0704a68077.824 68077.824 0 0 1-148.4288-113.3568c-44.032-31.744-85.2992-44.6464-121.2416-41.728V153.6a51.2 51.2 0 0 1 51.2-51.2h716.8a51.2 51.2 0 0 1 51.2 51.2v411.5456a1678.848 1678.848 0 0 1-24.9856-24.3712l-2.2016-2.2016c-20.3264-19.6096-42.9056-26.7776-62.5664-26.5728H492.1856c-17.408 1.3312-33.792 5.12-51.0464 14.2336-33.4848 17.5616-55.6032 49.2032-54.6816 91.904 0.9216 40.96 21.0944 77.312 53.8624 98.6624zM307.2 256v51.2h409.6V256H307.2z m0 153.6v51.2h409.6V409.6H307.2z m665.6 273.92v185.7024a51.2 51.2 0 0 1-51.2 51.2H346.7776s-17.0496 5.4272-31.5904-7.1168a49923.4304 49923.4304 0 0 1-258.1504-229.5808c-12.6464-14.4896-0.8192-39.68-0.8192-39.68s37.888-70.7584 136.192 0a46035.968 46035.968 0 0 0 164.1472 125.2864h258.3552l81.2032-10.5984s-14.5408-58.0608-32.768-59.2896c-50.688-3.6352-142.3872-10.7008-171.8272-15.9744-33.3312-7.3216-53.1968-34.9696-53.8624-66.4064C436.6336 568.1152 492.1856 563.2 492.1856 563.2h340.7872s13.824-0.3072 27.136 13.5168c13.568 13.7216 97.6896 94.208 112.6912 106.752z" p-id="7329"></path></svg>