<?xml version="1.0" standalone="no"?><!DOCTYPE svg PUBLIC "-//W3C//DTD SVG 1.1//EN" "http://www.w3.org/Graphics/SVG/1.1/DTD/svg11.dtd"><svg t="1538018077868" class="icon" style="" viewBox="0 0 1024 1024" version="1.1" xmlns="http://www.w3.org/2000/svg" p-id="1474" xmlns:xlink="http://www.w3.org/1999/xlink" width="200" height="200"><defs><style type="text/css"></style></defs><path d="M512 67C266.231 67 67 266.231 67 512c0 245.768 199.231 445 445 445 245.768 0 445-199.232 445-445 0.018-245.769-199.232-445-445-445z m273.217 668.641c0 17.29-14.135 31.424-31.43 31.424H268.336c-17.34-0.041-31.383-14.088-31.429-31.424 0-17.295 14.138-31.429 31.429-31.429h485.452c17.34 0.041 31.387 14.089 31.429 31.429zM298.885 482.306l58.293-48.623 88.825 100.344 217.87-199.054 46.793 46.793-265.013 267.213-146.768-166.673z m486.332-195.564c0 17.29-14.135 31.429-31.43 31.429H268.336c-17.34-0.046-31.383-14.093-31.429-31.429 0-17.295 14.138-31.429 31.429-31.429h485.452c17.34 0.041 31.387 14.088 31.429 31.429z m0 0" p-id="1475"></path></svg>