<?xml version="1.0" standalone="no"?><!DOCTYPE svg PUBLIC "-//W3C//DTD SVG 1.1//EN" "http://www.w3.org/Graphics/SVG/1.1/DTD/svg11.dtd"><svg t="1537952379968" class="icon" style="" viewBox="0 0 1024 1024" version="1.1" xmlns="http://www.w3.org/2000/svg" p-id="7079" xmlns:xlink="http://www.w3.org/1999/xlink" width="200" height="200"><defs><style type="text/css"></style></defs><path d="M512 0C229.224727 0 0 229.224727 0 512s229.224727 512 512 512 512-229.224727 512-512S794.775273 0 512 0zM673.896727 746.100364l-322.327273 0c-86.516364 0-129.536-65.117091-95.604364-144.64 0 0 36.072727-62.242909 81.117091-139.997091 45.032727-77.742545 105.634909-126.254545 175.650909-126.254545 70.679273 0 128.663273 48.081455 175.627636 126.254545 46.941091 78.184727 81.128727 139.985455 81.128727 139.973818C803.351273 680.971636 760.354909 746.100364 673.896727 746.100364zM755.874909 456.715636c-20.247273 12.555636-44.288-4.491636-48.546909-15.592727-27.706182-72.564364-95.860364-125.498182-178.199273-130.210909-11.264-0.896-22.609455-0.896-33.873455 0l0-0.046545c-82.513455 4.584727-150.784 57.576727-178.525091 130.245818-4.258909 11.066182-28.334545 28.136727-48.605091 15.581091-23.959273-14.894545-42.286545-68.933818-11.205818-113.210182 21.445818-30.557091 106.077091-64.791273 236.276364-65.117091l0-0.034909c12.706909-0.581818 25.437091-0.581818 38.144 0l0 0.069818c129.885091 0.418909 214.330182 34.606545 235.729455 65.117091C798.161455 387.781818 779.857455 441.821091 755.874909 456.715636z" p-id="7080"></path><path d="M512.709818 382.731636c-60.939636 0-110.301091 49.384727-110.301091 110.289455 0 60.951273 49.361455 110.301091 110.301091 110.301091 60.916364 0 110.324364-49.349818 110.324364-110.301091C623.034182 432.104727 573.637818 382.731636 512.709818 382.731636z" p-id="7081"></path></svg>