<?xml version="1.0" standalone="no"?><!DOCTYPE svg PUBLIC "-//W3C//DTD SVG 1.1//EN" "http://www.w3.org/Graphics/SVG/1.1/DTD/svg11.dtd"><svg t="1537952413347" class="icon" style="" viewBox="0 0 1024 1024" version="1.1" xmlns="http://www.w3.org/2000/svg" p-id="7204" xmlns:xlink="http://www.w3.org/1999/xlink" width="200" height="200"><defs><style type="text/css"></style></defs><path d="M429.23008 514.6112c28.88704 0 49.50016-20.62848 49.50016-49.47968 0-24.75008-20.61312-49.44384-49.50016-49.44384H243.69152V329.0368c0-8.2176-4.15744-16.47616-12.416-16.47616-8.25344-4.15744-16.46592-4.15744-20.5824 0L16.87552 448.59392c-4.14208 8.32-8.25344 12.37504-8.25344 20.6336 0 8.2176 4.11136 12.37504 8.25344 16.47104l193.8176 136.06912c4.11136 4.15744 8.24832 4.15744 12.32896 4.15744 4.1472 0 8.25344 0 8.25344-4.15744 8.25856-4.096 12.416-12.3136 12.416-16.47616v-90.71104h185.53856v0.03072zM965.30432 40.3968H350.86336c-20.61824 0-37.09952 16.47104-37.09952 32.9728v280.448H383.8464V110.50496h445.35808l-181.4016 98.9696c-12.39552 4.12672-16.47616 16.50688-16.47616 28.8768v531.94752H383.88224v-189.6704H313.76896v222.68416c0 20.59264 16.50176 32.94208 32.99328 32.94208h284.57472v131.97824c0 12.3136 8.24832 24.7552 16.47616 28.88192 8.28416 8.24832 12.34432 8.24832 20.59264 8.24832 4.1472 0 12.35968 0 16.512-4.13184l288.64512-160.78336c12.38528-4.15744 24.7552-16.512 24.7552-33.00352V73.344c-0.00512-16.47616-16.50176-32.9472-33.01376-32.9472z" p-id="7205"></path></svg>